<mxfile host="Electron" modified="2023-11-14T13:54:56.039Z" agent="Mozilla/5.0 (Windows NT 10.0; Win64; x64) AppleWebKit/537.36 (KHTML, like Gecko) draw.io/21.7.5 Chrome/114.0.5735.289 Electron/25.8.1 Safari/537.36" etag="2bLoUJElHk5jr6s1GlO3" version="21.7.5" type="device">
  <diagram name="Trang-1" id="qZsesuZXTeZvNF1j6Re_">
    <mxGraphModel dx="2495" dy="965" grid="1" gridSize="10" guides="1" tooltips="1" connect="1" arrows="1" fold="1" page="1" pageScale="1" pageWidth="827" pageHeight="1169" math="0" shadow="0">
      <root>
        <mxCell id="0" />
        <mxCell id="1" parent="0" />
        <mxCell id="s3W6PVDwRBQYd5ewwMDr-9" value="" style="rounded=0;whiteSpace=wrap;html=1;" parent="1" vertex="1">
          <mxGeometry x="-10" y="60" width="1330" height="1020" as="geometry" />
        </mxCell>
        <mxCell id="8yLZFXFgFqGFa4ZHTfJi-31" value="TeacherController" style="swimlane;fontStyle=1;align=center;verticalAlign=top;childLayout=stackLayout;horizontal=1;startSize=26;horizontalStack=0;resizeParent=1;resizeLast=0;collapsible=1;marginBottom=0;rounded=0;shadow=0;strokeWidth=1;" parent="1" vertex="1">
          <mxGeometry x="5" y="120" width="350" height="120" as="geometry">
            <mxRectangle x="30" y="600" width="160" height="26" as="alternateBounds" />
          </mxGeometry>
        </mxCell>
        <mxCell id="8yLZFXFgFqGFa4ZHTfJi-32" value="- teacherService : TeacherService" style="text;align=left;verticalAlign=top;spacingLeft=4;spacingRight=4;overflow=hidden;rotatable=0;points=[[0,0.5],[1,0.5]];portConstraint=eastwest;rounded=0;shadow=0;html=0;" parent="8yLZFXFgFqGFa4ZHTfJi-31" vertex="1">
          <mxGeometry y="26" width="350" height="26" as="geometry" />
        </mxCell>
        <mxCell id="8yLZFXFgFqGFa4ZHTfJi-33" value="" style="line;html=1;strokeWidth=1;align=left;verticalAlign=middle;spacingTop=-1;spacingLeft=3;spacingRight=3;rotatable=0;labelPosition=right;points=[];portConstraint=eastwest;" parent="8yLZFXFgFqGFa4ZHTfJi-31" vertex="1">
          <mxGeometry y="52" width="350" height="8" as="geometry" />
        </mxCell>
        <mxCell id="8yLZFXFgFqGFa4ZHTfJi-34" value="+ getAllTeacher() : Page&lt;Teacher&gt; " style="text;align=left;verticalAlign=top;spacingLeft=4;spacingRight=4;overflow=hidden;rotatable=0;points=[[0,0.5],[1,0.5]];portConstraint=eastwest;" parent="8yLZFXFgFqGFa4ZHTfJi-31" vertex="1">
          <mxGeometry y="60" width="350" height="26" as="geometry" />
        </mxCell>
        <mxCell id="8yLZFXFgFqGFa4ZHTfJi-35" value="+ deleteTeacher(Id) : void " style="text;align=left;verticalAlign=top;spacingLeft=4;spacingRight=4;overflow=hidden;rotatable=0;points=[[0,0.5],[1,0.5]];portConstraint=eastwest;" parent="8yLZFXFgFqGFa4ZHTfJi-31" vertex="1">
          <mxGeometry y="86" width="350" height="34" as="geometry" />
        </mxCell>
        <mxCell id="8yLZFXFgFqGFa4ZHTfJi-36" style="edgeStyle=orthogonalEdgeStyle;rounded=0;orthogonalLoop=1;jettySize=auto;html=1;entryX=0.5;entryY=1;entryDx=0;entryDy=0;endArrow=diamondThin;endFill=1;jumpSize=10;" parent="1" source="8yLZFXFgFqGFa4ZHTfJi-38" target="8yLZFXFgFqGFa4ZHTfJi-31" edge="1">
          <mxGeometry relative="1" as="geometry" />
        </mxCell>
        <mxCell id="8yLZFXFgFqGFa4ZHTfJi-38" value="&lt;&lt;interface&gt;&gt;&#xa;TeacherService" style="swimlane;fontStyle=1;align=center;verticalAlign=top;childLayout=stackLayout;horizontal=1;startSize=40;horizontalStack=0;resizeParent=1;resizeLast=0;collapsible=1;marginBottom=0;rounded=0;shadow=0;strokeWidth=1;" parent="1" vertex="1">
          <mxGeometry x="4.38" y="310" width="350" height="140" as="geometry">
            <mxRectangle x="340" y="380" width="170" height="26" as="alternateBounds" />
          </mxGeometry>
        </mxCell>
        <mxCell id="8yLZFXFgFqGFa4ZHTfJi-39" value="" style="line;html=1;strokeWidth=1;align=left;verticalAlign=middle;spacingTop=-1;spacingLeft=3;spacingRight=3;rotatable=0;labelPosition=right;points=[];portConstraint=eastwest;" parent="8yLZFXFgFqGFa4ZHTfJi-38" vertex="1">
          <mxGeometry y="40" width="350" height="40" as="geometry" />
        </mxCell>
        <mxCell id="8yLZFXFgFqGFa4ZHTfJi-40" value="+ getAllTeacher() : Page&lt;Teacher&gt; " style="text;align=left;verticalAlign=top;spacingLeft=4;spacingRight=4;overflow=hidden;rotatable=0;points=[[0,0.5],[1,0.5]];portConstraint=eastwest;" parent="8yLZFXFgFqGFa4ZHTfJi-38" vertex="1">
          <mxGeometry y="80" width="350" height="26" as="geometry" />
        </mxCell>
        <mxCell id="8yLZFXFgFqGFa4ZHTfJi-41" value="+ deleteTeacher(Id) : void " style="text;align=left;verticalAlign=top;spacingLeft=4;spacingRight=4;overflow=hidden;rotatable=0;points=[[0,0.5],[1,0.5]];portConstraint=eastwest;" parent="8yLZFXFgFqGFa4ZHTfJi-38" vertex="1">
          <mxGeometry y="106" width="350" height="26" as="geometry" />
        </mxCell>
        <mxCell id="8yLZFXFgFqGFa4ZHTfJi-42" value="Owns" style="text;html=1;align=center;verticalAlign=middle;resizable=0;points=[];autosize=1;strokeColor=none;fillColor=none;" parent="1" vertex="1">
          <mxGeometry x="180" y="260" width="50" height="30" as="geometry" />
        </mxCell>
        <mxCell id="8yLZFXFgFqGFa4ZHTfJi-43" style="edgeStyle=orthogonalEdgeStyle;rounded=0;orthogonalLoop=1;jettySize=auto;html=1;entryX=0.5;entryY=1;entryDx=0;entryDy=0;dashed=1;endArrow=block;endFill=0;" parent="1" source="8yLZFXFgFqGFa4ZHTfJi-45" target="8yLZFXFgFqGFa4ZHTfJi-38" edge="1">
          <mxGeometry relative="1" as="geometry">
            <mxPoint x="200" y="522" as="targetPoint" />
          </mxGeometry>
        </mxCell>
        <mxCell id="8yLZFXFgFqGFa4ZHTfJi-45" value="TeacherServiceImpl" style="swimlane;fontStyle=1;align=center;verticalAlign=top;childLayout=stackLayout;horizontal=1;startSize=26;horizontalStack=0;resizeParent=1;resizeLast=0;collapsible=1;marginBottom=0;rounded=0;shadow=0;strokeWidth=1;" parent="1" vertex="1">
          <mxGeometry x="5.63" y="500" width="350" height="120" as="geometry">
            <mxRectangle x="30" y="600" width="160" height="26" as="alternateBounds" />
          </mxGeometry>
        </mxCell>
        <mxCell id="8yLZFXFgFqGFa4ZHTfJi-46" value="- teacherRepository : TeacherRepository" style="text;align=left;verticalAlign=top;spacingLeft=4;spacingRight=4;overflow=hidden;rotatable=0;points=[[0,0.5],[1,0.5]];portConstraint=eastwest;rounded=0;shadow=0;html=0;" parent="8yLZFXFgFqGFa4ZHTfJi-45" vertex="1">
          <mxGeometry y="26" width="350" height="26" as="geometry" />
        </mxCell>
        <mxCell id="8yLZFXFgFqGFa4ZHTfJi-47" value="" style="line;html=1;strokeWidth=1;align=left;verticalAlign=middle;spacingTop=-1;spacingLeft=3;spacingRight=3;rotatable=0;labelPosition=right;points=[];portConstraint=eastwest;" parent="8yLZFXFgFqGFa4ZHTfJi-45" vertex="1">
          <mxGeometry y="52" width="350" height="8" as="geometry" />
        </mxCell>
        <mxCell id="8yLZFXFgFqGFa4ZHTfJi-48" value="+ getAllTeacher() : Page&lt;Teacher&gt; " style="text;align=left;verticalAlign=top;spacingLeft=4;spacingRight=4;overflow=hidden;rotatable=0;points=[[0,0.5],[1,0.5]];portConstraint=eastwest;" parent="8yLZFXFgFqGFa4ZHTfJi-45" vertex="1">
          <mxGeometry y="60" width="350" height="26" as="geometry" />
        </mxCell>
        <mxCell id="8yLZFXFgFqGFa4ZHTfJi-49" value="+ deleteTeacher(Id) : void " style="text;align=left;verticalAlign=top;spacingLeft=4;spacingRight=4;overflow=hidden;rotatable=0;points=[[0,0.5],[1,0.5]];portConstraint=eastwest;" parent="8yLZFXFgFqGFa4ZHTfJi-45" vertex="1">
          <mxGeometry y="86" width="350" height="26" as="geometry" />
        </mxCell>
        <mxCell id="8yLZFXFgFqGFa4ZHTfJi-50" value="Realizes" style="text;html=1;align=center;verticalAlign=middle;resizable=0;points=[];autosize=1;strokeColor=none;fillColor=none;" parent="1" vertex="1">
          <mxGeometry x="175" y="460" width="70" height="30" as="geometry" />
        </mxCell>
        <mxCell id="8yLZFXFgFqGFa4ZHTfJi-51" style="edgeStyle=orthogonalEdgeStyle;rounded=0;orthogonalLoop=1;jettySize=auto;html=1;entryX=0.5;entryY=1;entryDx=0;entryDy=0;endArrow=diamondThin;endFill=1;" parent="1" source="8yLZFXFgFqGFa4ZHTfJi-54" target="8yLZFXFgFqGFa4ZHTfJi-45" edge="1">
          <mxGeometry relative="1" as="geometry" />
        </mxCell>
        <mxCell id="8yLZFXFgFqGFa4ZHTfJi-52" style="edgeStyle=orthogonalEdgeStyle;rounded=0;orthogonalLoop=1;jettySize=auto;html=1;entryX=0.5;entryY=0;entryDx=0;entryDy=0;endArrow=block;endFill=0;" parent="1" source="8yLZFXFgFqGFa4ZHTfJi-54" target="8yLZFXFgFqGFa4ZHTfJi-59" edge="1">
          <mxGeometry relative="1" as="geometry" />
        </mxCell>
        <mxCell id="8yLZFXFgFqGFa4ZHTfJi-54" value="&lt;&lt;interface&gt;&gt;&#xa;TeacherRepositpory&lt;Teacher, Integer&gt;" style="swimlane;fontStyle=1;align=center;verticalAlign=top;childLayout=stackLayout;horizontal=1;startSize=40;horizontalStack=0;resizeParent=1;resizeLast=0;collapsible=1;marginBottom=0;rounded=0;shadow=0;strokeWidth=1;" parent="1" vertex="1">
          <mxGeometry x="6.88" y="690" width="348.75" height="150" as="geometry">
            <mxRectangle x="340" y="380" width="170" height="26" as="alternateBounds" />
          </mxGeometry>
        </mxCell>
        <mxCell id="8yLZFXFgFqGFa4ZHTfJi-55" value="" style="line;html=1;strokeWidth=1;align=left;verticalAlign=middle;spacingTop=-1;spacingLeft=3;spacingRight=3;rotatable=0;labelPosition=right;points=[];portConstraint=eastwest;" parent="8yLZFXFgFqGFa4ZHTfJi-54" vertex="1">
          <mxGeometry y="40" width="348.75" height="50" as="geometry" />
        </mxCell>
        <mxCell id="8yLZFXFgFqGFa4ZHTfJi-56" value="+ getAllTeacher() : Page&lt;Teacher&gt; " style="text;align=left;verticalAlign=top;spacingLeft=4;spacingRight=4;overflow=hidden;rotatable=0;points=[[0,0.5],[1,0.5]];portConstraint=eastwest;" parent="8yLZFXFgFqGFa4ZHTfJi-54" vertex="1">
          <mxGeometry y="90" width="348.75" height="26" as="geometry" />
        </mxCell>
        <mxCell id="8yLZFXFgFqGFa4ZHTfJi-57" value="+ deleteTeacher(Id) : void " style="text;align=left;verticalAlign=top;spacingLeft=4;spacingRight=4;overflow=hidden;rotatable=0;points=[[0,0.5],[1,0.5]];portConstraint=eastwest;" parent="8yLZFXFgFqGFa4ZHTfJi-54" vertex="1">
          <mxGeometry y="116" width="348.75" height="26" as="geometry" />
        </mxCell>
        <mxCell id="8yLZFXFgFqGFa4ZHTfJi-58" value="Owns" style="text;html=1;align=center;verticalAlign=middle;resizable=0;points=[];autosize=1;strokeColor=none;fillColor=none;" parent="1" vertex="1">
          <mxGeometry x="180" y="640" width="50" height="30" as="geometry" />
        </mxCell>
        <mxCell id="8yLZFXFgFqGFa4ZHTfJi-59" value="&lt;&lt;interface&gt;&gt;&#xa;JpaRepository" style="swimlane;fontStyle=1;align=center;verticalAlign=top;childLayout=stackLayout;horizontal=1;startSize=40;horizontalStack=0;resizeParent=1;resizeLast=0;collapsible=1;marginBottom=0;rounded=0;shadow=0;strokeWidth=1;" parent="1" vertex="1">
          <mxGeometry x="20" y="890" width="320" height="90" as="geometry">
            <mxRectangle x="340" y="380" width="170" height="26" as="alternateBounds" />
          </mxGeometry>
        </mxCell>
        <mxCell id="8yLZFXFgFqGFa4ZHTfJi-60" value="" style="line;html=1;strokeWidth=1;align=left;verticalAlign=middle;spacingTop=-1;spacingLeft=3;spacingRight=3;rotatable=0;labelPosition=right;points=[];portConstraint=eastwest;" parent="8yLZFXFgFqGFa4ZHTfJi-59" vertex="1">
          <mxGeometry y="40" width="320" height="40" as="geometry" />
        </mxCell>
        <mxCell id="8yLZFXFgFqGFa4ZHTfJi-61" value="is" style="text;html=1;align=center;verticalAlign=middle;resizable=0;points=[];autosize=1;strokeColor=none;fillColor=none;" parent="1" vertex="1">
          <mxGeometry x="180" y="850" width="30" height="30" as="geometry" />
        </mxCell>
        <mxCell id="8yLZFXFgFqGFa4ZHTfJi-62" value="Teacher" style="swimlane;fontStyle=1;align=center;verticalAlign=top;childLayout=stackLayout;horizontal=1;startSize=26;horizontalStack=0;resizeParent=1;resizeLast=0;collapsible=1;marginBottom=0;rounded=0;shadow=0;strokeWidth=1;" parent="1" vertex="1">
          <mxGeometry x="640" y="300" width="260" height="330" as="geometry">
            <mxRectangle x="30" y="600" width="160" height="26" as="alternateBounds" />
          </mxGeometry>
        </mxCell>
        <mxCell id="8yLZFXFgFqGFa4ZHTfJi-63" value="- teacherId : Interger&#xa;- teacherName : String&#xa;- dateOfBirth : Date&#xa;- email : String&#xa;- phoneNumber : String&#xa;- teacherGender : String&#xa;- teacherAddress : String&#xa;- flagDelete : boolean &#xa;- image : String&#xa;- maxTeam : Interger&#xa;- team : Team&#xa;- class : Class&#xa;- account : Account &#xa;- faculty : Falcuty&#xa;- degree : Degree&#xa;" style="text;align=left;verticalAlign=top;spacingLeft=4;spacingRight=4;overflow=hidden;rotatable=0;points=[[0,0.5],[1,0.5]];portConstraint=eastwest;rounded=0;shadow=0;html=0;" parent="8yLZFXFgFqGFa4ZHTfJi-62" vertex="1">
          <mxGeometry y="26" width="260" height="224" as="geometry" />
        </mxCell>
        <mxCell id="8yLZFXFgFqGFa4ZHTfJi-64" value="" style="line;html=1;strokeWidth=1;align=left;verticalAlign=middle;spacingTop=-1;spacingLeft=3;spacingRight=3;rotatable=0;labelPosition=right;points=[];portConstraint=eastwest;" parent="8yLZFXFgFqGFa4ZHTfJi-62" vertex="1">
          <mxGeometry y="250" width="260" height="8" as="geometry" />
        </mxCell>
        <mxCell id="8yLZFXFgFqGFa4ZHTfJi-65" value="- Teacher()&#xa;- getter()/setter()" style="text;align=left;verticalAlign=top;spacingLeft=4;spacingRight=4;overflow=hidden;rotatable=0;points=[[0,0.5],[1,0.5]];portConstraint=eastwest;rounded=0;shadow=0;html=0;" parent="8yLZFXFgFqGFa4ZHTfJi-62" vertex="1">
          <mxGeometry y="258" width="260" height="72" as="geometry" />
        </mxCell>
        <mxCell id="8yLZFXFgFqGFa4ZHTfJi-78" style="edgeStyle=orthogonalEdgeStyle;rounded=0;orthogonalLoop=1;jettySize=auto;html=1;dashed=1;endArrow=open;endFill=0;exitX=1;exitY=0.5;exitDx=0;exitDy=0;" parent="1" source="8yLZFXFgFqGFa4ZHTfJi-32" target="8yLZFXFgFqGFa4ZHTfJi-62" edge="1">
          <mxGeometry relative="1" as="geometry" />
        </mxCell>
        <mxCell id="8yLZFXFgFqGFa4ZHTfJi-80" value="uses" style="text;html=1;align=center;verticalAlign=middle;resizable=0;points=[];autosize=1;strokeColor=none;fillColor=none;" parent="1" vertex="1">
          <mxGeometry x="414" y="530" width="50" height="30" as="geometry" />
        </mxCell>
        <mxCell id="8yLZFXFgFqGFa4ZHTfJi-81" value="uses" style="text;html=1;align=center;verticalAlign=middle;resizable=0;points=[];autosize=1;strokeColor=none;fillColor=none;" parent="1" vertex="1">
          <mxGeometry x="410" y="350" width="50" height="30" as="geometry" />
        </mxCell>
        <mxCell id="8yLZFXFgFqGFa4ZHTfJi-82" value="uses" style="text;html=1;align=center;verticalAlign=middle;resizable=0;points=[];autosize=1;strokeColor=none;fillColor=none;" parent="1" vertex="1">
          <mxGeometry x="410" y="165" width="50" height="30" as="geometry" />
        </mxCell>
        <mxCell id="s3W6PVDwRBQYd5ewwMDr-8" value="uses" style="text;html=1;align=center;verticalAlign=middle;resizable=0;points=[];autosize=1;strokeColor=none;fillColor=none;" parent="1" vertex="1">
          <mxGeometry x="580" y="740" width="50" height="30" as="geometry" />
        </mxCell>
        <mxCell id="iNfUnY7m7PR0YHWNl7Da-2" value="" style="endArrow=open;html=1;rounded=0;dashed=1;endFill=0;entryX=0.008;entryY=0.464;entryDx=0;entryDy=0;entryPerimeter=0;exitX=0.987;exitY=0.286;exitDx=0;exitDy=0;exitPerimeter=0;" edge="1" parent="1" source="8yLZFXFgFqGFa4ZHTfJi-38" target="8yLZFXFgFqGFa4ZHTfJi-63">
          <mxGeometry width="50" height="50" relative="1" as="geometry">
            <mxPoint x="360" y="350" as="sourcePoint" />
            <mxPoint x="650" y="430" as="targetPoint" />
            <Array as="points">
              <mxPoint x="520" y="350" />
              <mxPoint x="520" y="430" />
            </Array>
          </mxGeometry>
        </mxCell>
        <mxCell id="iNfUnY7m7PR0YHWNl7Da-4" style="edgeStyle=orthogonalEdgeStyle;rounded=0;orthogonalLoop=1;jettySize=auto;html=1;dashed=1;endArrow=open;endFill=0;" edge="1" parent="1" source="8yLZFXFgFqGFa4ZHTfJi-46" target="8yLZFXFgFqGFa4ZHTfJi-63">
          <mxGeometry relative="1" as="geometry">
            <Array as="points">
              <mxPoint x="520" y="539" />
              <mxPoint x="520" y="470" />
            </Array>
          </mxGeometry>
        </mxCell>
        <mxCell id="iNfUnY7m7PR0YHWNl7Da-7" value="" style="endArrow=open;html=1;rounded=0;dashed=1;endFill=0;exitX=1.01;exitY=-0.011;exitDx=0;exitDy=0;exitPerimeter=0;" edge="1" parent="1" source="8yLZFXFgFqGFa4ZHTfJi-56" target="8yLZFXFgFqGFa4ZHTfJi-65">
          <mxGeometry width="50" height="50" relative="1" as="geometry">
            <mxPoint x="360" y="760" as="sourcePoint" />
            <mxPoint x="900" y="640" as="targetPoint" />
            <Array as="points">
              <mxPoint x="770" y="780" />
            </Array>
          </mxGeometry>
        </mxCell>
        <mxCell id="iNfUnY7m7PR0YHWNl7Da-8" value="Falcuty" style="swimlane;fontStyle=1;align=center;verticalAlign=top;childLayout=stackLayout;horizontal=1;startSize=26;horizontalStack=0;resizeParent=1;resizeLast=0;collapsible=1;marginBottom=0;rounded=0;shadow=0;strokeWidth=1;" vertex="1" parent="1">
          <mxGeometry x="1070" y="313" width="140" height="134" as="geometry">
            <mxRectangle x="30" y="600" width="160" height="26" as="alternateBounds" />
          </mxGeometry>
        </mxCell>
        <mxCell id="iNfUnY7m7PR0YHWNl7Da-9" value="- falcutyId : Interger&#xa;- falcutyName : String&#xa;" style="text;align=left;verticalAlign=top;spacingLeft=4;spacingRight=4;overflow=hidden;rotatable=0;points=[[0,0.5],[1,0.5]];portConstraint=eastwest;rounded=0;shadow=0;html=0;" vertex="1" parent="iNfUnY7m7PR0YHWNl7Da-8">
          <mxGeometry y="26" width="140" height="42" as="geometry" />
        </mxCell>
        <mxCell id="iNfUnY7m7PR0YHWNl7Da-10" value="" style="line;html=1;strokeWidth=1;align=left;verticalAlign=middle;spacingTop=-1;spacingLeft=3;spacingRight=3;rotatable=0;labelPosition=right;points=[];portConstraint=eastwest;" vertex="1" parent="iNfUnY7m7PR0YHWNl7Da-8">
          <mxGeometry y="68" width="140" height="8" as="geometry" />
        </mxCell>
        <mxCell id="iNfUnY7m7PR0YHWNl7Da-11" value="- Falcuty()&#xa;- getter()/setter()" style="text;align=left;verticalAlign=top;spacingLeft=4;spacingRight=4;overflow=hidden;rotatable=0;points=[[0,0.5],[1,0.5]];portConstraint=eastwest;rounded=0;shadow=0;html=0;" vertex="1" parent="iNfUnY7m7PR0YHWNl7Da-8">
          <mxGeometry y="76" width="140" height="58" as="geometry" />
        </mxCell>
        <mxCell id="iNfUnY7m7PR0YHWNl7Da-12" style="edgeStyle=orthogonalEdgeStyle;rounded=0;orthogonalLoop=1;jettySize=auto;html=1;endArrow=diamond;endFill=0;" edge="1" parent="1" source="iNfUnY7m7PR0YHWNl7Da-9" target="8yLZFXFgFqGFa4ZHTfJi-63">
          <mxGeometry relative="1" as="geometry" />
        </mxCell>
        <mxCell id="iNfUnY7m7PR0YHWNl7Da-14" value="&lt;font style=&quot;font-size: 9px;&quot;&gt;has&lt;/font&gt;" style="text;html=1;strokeColor=none;fillColor=none;align=center;verticalAlign=middle;whiteSpace=wrap;rounded=0;" vertex="1" parent="1">
          <mxGeometry x="930" y="390" width="60" height="30" as="geometry" />
        </mxCell>
      </root>
    </mxGraphModel>
  </diagram>
</mxfile>
